<svg width="366" height="22" viewBox="0 0 366 22" fill="none" xmlns="http://www.w3.org/2000/svg">
<path d="M180.257 15.224C179.449 15.224 178.693 15.07 177.989 14.762C177.284 14.454 176.666 14.027 176.134 13.481C175.602 12.9303 175.184 12.2933 174.881 11.57C174.582 10.842 174.433 10.0627 174.433 9.232C174.433 8.39667 174.582 7.61733 174.881 6.894C175.184 6.17067 175.602 5.536 176.134 4.99C176.666 4.43933 177.284 4.01 177.989 3.702C178.693 3.394 179.449 3.24 180.257 3.24C181.064 3.24 181.82 3.394 182.525 3.702C183.229 4.01 183.848 4.43933 184.38 4.99C184.912 5.536 185.327 6.17067 185.626 6.894C185.929 7.61733 186.081 8.39667 186.081 9.232C186.081 10.0627 185.929 10.842 185.626 11.57C185.327 12.2933 184.912 12.9303 184.38 13.481C183.848 14.027 183.229 14.454 182.525 14.762C181.82 15.07 181.064 15.224 180.257 15.224ZM180.257 13.852C180.863 13.852 181.426 13.7353 181.944 13.502C182.466 13.2687 182.921 12.9443 183.309 12.529C183.701 12.109 184.004 11.619 184.219 11.059C184.438 10.4943 184.548 9.88533 184.548 9.232C184.548 8.57867 184.438 7.972 184.219 7.412C184.004 6.84733 183.701 6.35733 183.309 5.942C182.921 5.522 182.466 5.19533 181.944 4.962C181.426 4.72867 180.863 4.612 180.257 4.612C179.65 4.612 179.085 4.72867 178.563 4.962C178.045 5.19533 177.59 5.522 177.198 5.942C176.81 6.35733 176.507 6.84733 176.288 7.412C176.073 7.972 175.966 8.57867 175.966 9.232C175.966 9.88533 176.073 10.4943 176.288 11.059C176.507 11.619 176.81 12.109 177.198 12.529C177.59 12.9443 178.045 13.2687 178.563 13.502C179.085 13.7353 179.65 13.852 180.257 13.852ZM188.565 15V7.832H189.923V8.882C190.161 8.46667 190.464 8.15167 190.833 7.937C191.202 7.71767 191.619 7.608 192.086 7.608C192.31 7.608 192.536 7.636 192.765 7.692C192.998 7.74333 193.199 7.81333 193.367 7.902L192.807 9.05C192.662 8.97067 192.494 8.90767 192.303 8.861C192.112 8.81433 191.932 8.791 191.764 8.791C191.451 8.791 191.153 8.87267 190.868 9.036C190.588 9.19467 190.359 9.40233 190.182 9.659C190.009 9.91567 189.923 10.191 189.923 10.485V15H188.565Z" fill="#C4C4C4"/>
<rect y="10" width="164" height="1" fill="#C4C4C4"/>
<rect x="202" y="10" width="164" height="1" fill="#C4C4C4"/>
</svg>
