<svg width="83" height="106" viewBox="0 0 83 106" fill="none" xmlns="http://www.w3.org/2000/svg">
<path d="M81.9 61.5L76 25C75.5 21.9 72.8 19.6 69.7 19.6H68.2L69 30C69.1 31.3 68.7 32.6 67.8 33.6C66.9 34.6 65.8 35.2 64.5 35.3C64.4 35.3 64.2 35.3 64.1 35.3C61.6 35.3 59.4 33.3 59.2 30.8L58.3 19.6H30.2L29.3 30.8C29.1 33.3 26.9 35.3 24.4 35.3C24.3 35.3 24.1 35.3 24 35.3C21.3 35.1 19.3 32.7 19.5 30L20.4 19.6H17.4C14.2 19.6 11.5 21.9 11 25.1L0 98.3C0 98.4 0 98.4 0 98.5C56.4 109.4 72.1 62.7 72.1 62.7C71.6 82.7 62.9 96.2 52.3 105.4C71.7 101 85.2 82.1 81.9 61.5Z" fill="white"/>
<path d="M66.5 30.3L65.3 15.5C64.7 6.8 57.6 0.2 49 0.1L40 0C39.9 0 39.9 0 39.8 0C31.2 0 23.9 6.7 23.2 15.3L21.9 30.3C21.8 31.7 22.8 32.8 24.1 33C24.2 33 24.2 33 24.3 33C25.6 33 26.6 32 26.7 30.7L28 15.7C28.5 9.6 33.6 4.9 39.7 4.9C39.8 4.9 39.8 4.9 39.9 4.9L48.9 5C55 5.1 60 9.8 60.5 15.8L61.7 30.6C61.8 31.9 62.9 32.9 64.1 32.9C64.2 32.9 64.2 32.9 64.3 32.9C65.6 32.8 66.6 31.6 66.5 30.3Z" fill="white"/>
</svg>
